<?xml version="1.0" standalone="no"?>
<!DOCTYPE svg PUBLIC "-//W3C//DTD SVG 20010904//EN"
 "http://www.w3.org/TR/2001/REC-SVG-20010904/DTD/svg10.dtd">
<svg version="1.0" xmlns="http://www.w3.org/2000/svg"
 width="1262.000000pt" height="1262.000000pt" viewBox="0 0 1262.000000 1262.000000"
 preserveAspectRatio="xMidYMid meet">
<metadata>
Created by potrace 1.15, written by Peter Selinger 2001-2017
</metadata>
<g transform="translate(0.000000,1262.000000) scale(0.100000,-0.100000)"
fill="#000000" stroke="none">
<path d="M0 6310 l0 -6310 6310 0 6310 0 0 6310 0 6310 -6310 0 -6310 0 0
-6310z m6800 5495 c811 -69 1568 -302 2270 -698 452 -256 824 -540 1205 -922
360 -359 606 -675 867 -1115 305 -512 556 -1169 662 -1730 58 -307 92 -605
102 -880 l7 -195 -206 5 c-118 3 -210 9 -215 15 -6 6 -64 84 -131 175 -175
239 -159 223 -301 286 -69 30 -132 63 -141 74 -9 10 -29 68 -43 127 l-27 108
-150 163 c-82 89 -154 173 -159 187 -7 18 -63 249 -95 391 -3 15 -24 30 -70
49 -46 20 -65 33 -65 46 0 10 38 92 85 182 47 90 85 167 85 170 0 4 -86 7
-191 7 l-191 0 86 164 c47 91 86 169 86 174 0 9 -191 48 -359 73 l-83 13 5 45
c3 25 21 147 40 270 20 124 33 229 31 233 -3 4 -83 8 -179 8 l-174 0 -10 38
c-43 158 -101 402 -101 422 0 14 6 34 14 45 21 31 187 315 193 333 8 18 -33
15 -302 -22 -99 -13 -210 -28 -247 -31 l-68 -7 110 188 c60 104 107 190 105
193 -3 2 -135 5 -293 5 l-289 2 -104 66 c-171 109 -316 216 -464 343 -228 195
-381 308 -500 368 -117 59 -269 84 -342 56 -15 -5 -49 -31 -74 -56 l-47 -45
-63 25 c-138 54 -241 59 -335 17 -72 -31 -102 -57 -153 -134 -46 -67 -52 -73
-107 -90 -82 -26 -144 -58 -249 -131 -120 -82 -116 -80 -268 -125 -189 -55
-690 -221 -907 -300 -564 -205 -1234 -506 -1572 -707 -394 -233 -672 -482
-760 -681 -78 -176 -63 -310 53 -462 133 -174 221 -346 254 -493 21 -94 56
-146 127 -187 63 -36 105 -48 202 -59 73 -8 176 -4 176 8 -1 3 -20 20 -44 38
-74 54 -109 148 -90 241 l6 30 77 -32 c138 -60 204 -97 258 -148 29 -28 53
-48 53 -45 0 3 -9 54 -21 112 -11 59 -19 111 -17 117 2 5 72 -60 155 -146 145
-148 181 -178 169 -138 -3 9 -15 58 -26 107 -11 50 -22 98 -24 108 -2 9 -3 17
-1 17 2 0 54 -58 115 -130 62 -71 116 -130 121 -130 5 0 10 61 11 135 l3 134
59 -84 c32 -47 62 -82 67 -79 5 3 9 47 9 97 l1 92 94 -100 95 -100 0 128 0
127 64 -67 c35 -38 73 -79 84 -93 11 -14 23 -22 26 -19 3 3 -1 48 -9 99 -7 52
-12 97 -9 101 2 4 73 -26 157 -67 83 -40 157 -74 163 -74 7 0 -3 58 -27 156
-34 139 -37 161 -28 200 21 84 119 164 254 208 96 31 257 48 510 53 334 7 500
-9 903 -88 256 -49 507 -129 482 -152 -3 -3 -77 -39 -165 -80 -296 -139 -592
-320 -761 -465 -149 -128 -280 -322 -303 -445 -5 -26 -10 -49 -12 -51 -2 -2
-63 -43 -136 -90 l-132 -86 -121 0 -122 0 46 -85 c24 -47 43 -85 41 -85 -2 0
-61 40 -131 90 -70 49 -129 88 -131 86 -2 -2 3 -63 12 -136 9 -73 14 -135 12
-137 -2 -2 -53 33 -113 77 -60 44 -112 80 -116 80 -4 0 -3 -12 2 -27 5 -16 21
-65 35 -111 15 -46 24 -86 21 -89 -3 -4 -55 42 -115 100 -60 59 -114 107 -120
107 -7 0 -11 -55 -13 -151 l-3 -152 -83 64 c-116 88 -122 92 -128 87 -3 -3 11
-72 31 -153 19 -82 33 -150 31 -153 -3 -2 -70 46 -150 107 -80 61 -153 114
-161 117 -14 6 6 -60 64 -209 l11 -27 -33 13 c-17 8 -83 35 -145 62 -62 26
-115 45 -118 42 -3 -3 7 -53 24 -112 l29 -106 -46 7 c-67 10 -135 37 -182 75
l-42 33 7 -29 c18 -71 90 -239 139 -320 129 -217 288 -348 494 -407 70 -21 99
-23 288 -23 185 1 220 3 292 23 244 66 441 169 663 347 158 127 294 199 495
264 170 56 306 81 489 92 283 16 384 34 586 105 207 72 427 200 621 363 158
131 293 290 437 511 41 63 77 117 78 119 9 10 13 -10 24 -94 17 -140 95 -525
139 -686 109 -395 288 -833 441 -1081 87 -139 239 -328 288 -357 118 -70 280
-191 338 -254 78 -84 133 -189 141 -270 10 -99 -30 -242 -76 -266 -10 -6 -81
-27 -157 -47 -125 -33 -152 -37 -274 -38 -129 -1 -138 0 -193 27 -45 22 -63
39 -84 75 -15 26 -28 49 -31 52 -9 12 -103 -123 -185 -267 -70 -121 -90 -191
-83 -288 3 -44 8 -95 12 -113 6 -32 6 -33 -22 -27 -16 4 -62 22 -103 41 -41
19 -76 32 -79 30 -12 -13 -32 -143 -37 -251 -10 -177 7 -343 45 -454 l32 -91
-83 -160 c-45 -88 -89 -166 -96 -172 -8 -6 -57 -31 -110 -54 l-95 -43 -36 19
c-21 10 -200 124 -399 252 -199 128 -382 245 -407 260 l-45 27 6 163 c10 287
-24 442 -150 677 -94 176 -142 226 -255 269 -102 39 -189 62 -233 62 -50 -1
-115 -34 -133 -68 l-15 -30 92 -22 c79 -19 151 -43 280 -92 16 -6 35 -21 42
-32 17 -26 88 -257 81 -264 -3 -3 -87 14 -186 37 -219 50 -230 51 -229 14 4
-81 7 -84 99 -103 125 -26 209 -63 260 -115 l43 -44 12 -260 c10 -211 16 -266
29 -286 11 -17 67 -49 160 -94 343 -163 626 -402 770 -648 60 -103 143 -159
251 -170 42 -4 63 -1 98 16 55 26 117 92 150 158 47 92 109 126 227 126 52 0
98 -8 150 -25 98 -32 350 -150 350 -163 0 -6 -6 -17 -12 -23 -7 -7 -20 -33
-28 -57 -14 -41 -37 -60 -426 -353 l-411 -310 -94 43 c-194 89 -367 128 -579
129 -152 1 -210 -8 -337 -51 -69 -23 -75 -23 -125 -9 -29 8 -87 20 -128 26
-41 6 -140 27 -220 46 -163 40 -425 85 -449 77 -9 -3 -33 -22 -53 -41 l-37
-35 -223 61 c-485 133 -725 207 -762 236 -99 75 -408 578 -622 1013 -53 108
-96 181 -114 196 -58 49 -164 44 -250 -13 -76 -50 -278 -239 -343 -320 -34
-43 -75 -103 -92 -133 l-29 -55 59 -147 c62 -154 115 -242 245 -404 109 -137
161 -182 426 -374 110 -79 163 -107 202 -107 16 0 103 19 193 41 157 40 169
41 274 36 73 -4 140 -14 200 -31 49 -14 243 -62 430 -107 187 -45 347 -85 356
-90 9 -4 23 -28 33 -52 10 -27 26 -48 41 -55 13 -6 91 -18 172 -27 81 -9 195
-25 253 -35 244 -46 250 -48 250 -83 0 -12 10 -38 21 -57 l21 -34 38 44 37 44
94 -14 c52 -7 124 -12 162 -11 37 1 67 0 67 -4 0 -3 -11 -23 -25 -43 -14 -20
-25 -42 -25 -48 0 -15 100 -37 115 -24 6 5 20 26 31 45 10 19 23 35 29 35 6 0
50 -16 99 -35 49 -19 97 -35 107 -35 26 0 77 47 100 91 10 21 22 65 25 97 l7
59 90 -28 c49 -16 101 -37 115 -46 76 -55 74 -54 147 -47 39 3 78 11 89 16 10
6 76 62 147 125 153 139 245 209 382 291 112 68 315 148 462 182 47 11 107 31
133 44 167 85 190 263 55 419 -31 35 -58 78 -64 100 -12 45 -4 127 15 152 11
15 16 12 43 -31 17 -27 36 -67 43 -89 7 -22 16 -43 19 -48 4 -4 42 90 85 210
43 120 93 253 112 295 19 43 42 104 50 135 24 96 79 196 143 261 110 112 405
232 508 206 35 -8 39 -13 59 -71 12 -35 35 -84 52 -110 46 -73 65 -158 68
-315 3 -132 4 -141 40 -229 28 -69 35 -97 28 -113 -20 -49 -183 -265 -250
-331 -39 -38 -81 -86 -94 -105 -32 -48 -327 -337 -486 -476 -419 -367 -880
-662 -1354 -868 -107 -46 -222 -96 -255 -111 -228 -103 -699 -241 -1023 -300
-1578 -288 -3155 87 -4422 1051 -372 283 -782 692 -1050 1049 -184 245 -422
624 -549 875 -337 663 -535 1400 -582 2158 -16 271 -6 767 20 983 82 672 254
1258 542 1839 348 705 825 1311 1429 1817 342 287 682 507 1120 727 892 446
1909 637 2930 551z m59 -1028 c26 -22 61 -111 61 -157 0 -72 25 -151 107 -339
68 -159 76 -182 80 -255 5 -72 3 -84 -17 -108 -12 -16 -31 -28 -44 -28 -13 0
-63 25 -112 56 -151 96 -154 98 -166 86 -22 -22 -2 -125 52 -262 46 -117 54
-146 58 -222 4 -87 4 -87 -27 -119 -32 -31 -33 -31 -111 -27 -116 7 -184 43
-293 158 -131 137 -177 249 -177 431 0 139 72 324 194 496 77 110 271 310 306
315 28 4 67 -7 89 -25z m-1099 -526 c0 -4 -20 -55 -45 -111 -69 -159 -85 -218
-85 -325 0 -151 43 -255 147 -357 26 -26 73 -61 103 -78 l55 -31 -42 6 c-54 8
-147 -15 -227 -58 -42 -22 -94 -66 -168 -142 l-108 -110 8 65 c4 36 7 104 7
152 0 77 -3 90 -22 110 -20 19 -25 20 -47 9 -13 -7 -32 -32 -41 -55 -60 -144
-77 -166 -129 -166 -56 0 -162 179 -173 292 -21 225 213 495 647 746 108 63
120 68 120 53z m-2026 -843 c129 -50 161 -122 103 -234 -41 -80 -174 -209
-306 -295 -69 -46 -77 -49 -140 -49 -172 0 -261 -74 -261 -216 0 -122 -27
-178 -75 -156 -36 16 -71 76 -111 188 -83 230 -48 403 112 553 106 99 225 158
429 212 121 32 162 32 249 -3z m4317 -414 c165 -49 265 -147 305 -298 10 -38
11 -78 4 -167 -10 -133 -38 -220 -82 -252 -23 -17 -31 -18 -56 -8 -16 7 -43
26 -58 42 -28 29 -29 35 -29 122 0 70 -5 100 -19 127 -49 91 -129 154 -260
205 -99 38 -166 86 -192 137 -21 40 -9 67 39 89 56 25 267 27 348 3z m2361
-4179 c99 -17 145 -45 171 -103 17 -41 18 -53 9 -111 -7 -36 -18 -115 -27
-176 -28 -196 -56 -285 -91 -285 -9 0 -26 23 -40 54 -23 51 -24 62 -22 217 3
156 2 166 -20 201 -27 44 -53 54 -93 38 -36 -15 -122 0 -190 34 -59 30 -60 59
-2 99 30 22 59 32 105 37 95 11 116 10 200 -5z m-176 -414 c18 -11 34 -31 38
-47 18 -69 -139 -297 -343 -498 l-100 -99 15 43 c17 48 11 121 -13 158 -52 83
-194 82 -264 -1 -33 -39 -60 -146 -67 -262 l-7 -110 -36 70 c-46 87 -63 161
-56 235 13 150 134 295 327 394 231 118 429 164 506 117z m-5657 -1146 c40
-20 55 -68 36 -106 -17 -32 -43 -49 -75 -49 -29 0 -80 53 -80 82 0 30 26 67
54 78 29 12 33 12 65 -5z m-316 -235 c33 -26 41 -63 23 -99 -30 -56 -103 -62
-140 -9 -24 34 -19 66 13 99 34 34 68 37 104 9z m348 -159 c32 -33 37 -65 13
-99 -37 -53 -110 -47 -140 9 -18 36 -10 73 23 99 36 28 70 25 104 -9z m313
-110 c27 -23 35 -52 24 -84 -21 -59 -87 -75 -132 -31 -74 75 28 185 108 115z
m-316 -297 c30 -34 28 -70 -7 -105 -33 -32 -65 -37 -99 -13 -52 36 -48 109 7
139 33 19 70 11 99 -21z m333 -63 c33 -33 35 -50 14 -90 -39 -76 -155 -41
-155 45 0 26 56 74 85 74 16 0 38 -12 56 -29z m305 -64 c36 -32 37 -79 1 -114
-35 -36 -82 -35 -114 1 -31 36 -30 77 3 110 33 33 74 34 110 3z m-321 -192
c51 -50 15 -135 -58 -135 -73 0 -108 90 -53 137 36 30 80 30 111 -2z"/>
</g>
</svg>
